<svg xmlns="http://www.w3.org/2000/svg" width="20" height="14.922" viewBox="0 0 20 14.922">
  <path id="Path_1465" data-name="Path 1465" d="M-76.7-110.314A.892.892,0,0,0-76-110a.892.892,0,0,0,.7-.312L-63.773-121.8a.952.952,0,0,0,.273-.7.952.952,0,0,0-.273-.7l-1.445-1.406a.871.871,0,0,0-.684-.312.992.992,0,0,0-.723.313L-76-115.236l-4.375-4.375a.992.992,0,0,0-.723-.312.871.871,0,0,0-.684.313l-1.445,1.406a.952.952,0,0,0-.273.7.952.952,0,0,0,.273.7Z" transform="translate(83.5 124.924)" fill="#fff"/>
</svg>
