<svg xmlns="http://www.w3.org/2000/svg" width="30" height="26.25" viewBox="0 0 30 26.25">
  <path id="Path_130" data-name="Path 130" d="M28.594-4.125a1.356,1.356,0,0,0,1-.41,1.356,1.356,0,0,0,.41-1V-8.344a1.356,1.356,0,0,0-.41-1,1.356,1.356,0,0,0-1-.41H1.406a1.356,1.356,0,0,0-1,.41,1.356,1.356,0,0,0-.41,1v2.813a1.356,1.356,0,0,0,.41,1,1.356,1.356,0,0,0,1,.41Zm-.469,19.219A1.4,1.4,0,0,1,26.719,16.5H3.281a1.4,1.4,0,0,1-1.406-1.406V-.844a1.356,1.356,0,0,1,.41-1,1.356,1.356,0,0,1,1-.41H26.719a1.356,1.356,0,0,1,1,.41,1.356,1.356,0,0,1,.41,1ZM18.047,3.375a.7.7,0,0,0,.7-.7V2.2a.7.7,0,0,0-.7-.7H11.953a.7.7,0,0,0-.7.7v.469a.7.7,0,0,0,.7.7Z" transform="translate(0 9.75)" fill="#06709B"/>
</svg>
