<svg xmlns="http://www.w3.org/2000/svg" width="19.723" height="19.678" viewBox="0 0 19.723 19.678">
  <g id="call-answer_1_" data-name="call-answer (1)" transform="translate(0 -0.394)">
    <g id="Group_2" data-name="Group 2" transform="translate(0 0.394)">
      <g id="Group_1" data-name="Group 1">
        <path id="Path_2" data-name="Path 2" d="M19.28,15.958l-3.046-3.046A1.588,1.588,0,0,0,14,12.954l-1.535,1.534-.3-.168a15.271,15.271,0,0,1-3.691-2.67,15.356,15.356,0,0,1-2.675-3.7c-.057-.1-.111-.2-.165-.3l1.03-1.028.506-.507A1.587,1.587,0,0,0,7.2,3.882L4.158.836A1.587,1.587,0,0,0,1.919.878l-.858.863.023.023A4.964,4.964,0,0,0,.377,3.012,5.173,5.173,0,0,0,.062,4.278c-.4,3.334,1.121,6.381,5.256,10.516,5.716,5.715,10.322,5.284,10.521,5.263a5.146,5.146,0,0,0,1.269-.319,4.947,4.947,0,0,0,1.243-.7l.019.017.87-.852A1.59,1.59,0,0,0,19.28,15.958Z" transform="translate(0 -0.394)" fill="#1ba6df"/>
      </g>
    </g>
  </g>
</svg>
