<?xml version="1.0" encoding="utf-8"?>
<!-- Generator: Adobe Illustrator 17.0.0, SVG Export Plug-In . SVG Version: 6.00 Build 0)  -->
<!DOCTYPE svg PUBLIC "-//W3C//DTD SVG 1.1//EN" "http://www.w3.org/Graphics/SVG/1.1/DTD/svg11.dtd">
<svg version="1.1" id="Capa_1" xmlns="http://www.w3.org/2000/svg" xmlns:xlink="http://www.w3.org/1999/xlink" x="0px" y="0px"
	 width="21px" height="21px" viewBox="489.5 489.5 21 21" enable-background="new 489.5 489.5 21 21" xml:space="preserve">
<rect x="495.107" y="493.558" fill="none" stroke="#000000" stroke-width="0.9353" stroke-miterlimit="10" width="14.31" height="2.765"/>
<rect x="495.107" y="498.012" fill="none" stroke="#000000" stroke-width="0.9353" stroke-miterlimit="10" width="14.31" height="2.765"/>
<rect x="495.107" y="502.772" fill="none" stroke="#000000" stroke-width="0.9353" stroke-miterlimit="10" width="14.31" height="2.764"/>
<circle fill="none" stroke="#000000" stroke-miterlimit="10" cx="491.819" cy="495.449" r="1.302"/>
<path fill="none" stroke="#000000" stroke-miterlimit="10" d="M491.819,498.192c-0.719,0-1.301,0.582-1.301,1.301
	c0,0.72,0.582,1.304,1.301,1.304c0.719,0,1.302-0.584,1.302-1.304C493.12,498.774,492.537,498.192,491.819,498.192z"/>
<path fill="none" stroke="#000000" stroke-miterlimit="10" d="M491.819,502.555c-0.719,0-1.301,0.583-1.301,1.301
	c0,0.721,0.582,1.302,1.301,1.302c0.719,0,1.302-0.581,1.302-1.302C493.12,503.137,492.537,502.555,491.819,502.555z"/>
</svg>
