<svg xmlns="http://www.w3.org/2000/svg" width="20" height="17.778" viewBox="0 0 20 17.778">
  <path id="Path_1465" data-name="Path 1465" d="M-2.882-23.368a.333.333,0,0,0-.243-.1.333.333,0,0,0-.243.1l-7.6,7.6-.347,3.194a.674.674,0,0,0,.191.573.674.674,0,0,0,.573.191l3.194-.347,7.6-7.6A.333.333,0,0,0,.347-20a.333.333,0,0,0-.1-.243Zm5.625-.8a1.394,1.394,0,0,1,.382.972,1.275,1.275,0,0,1-.382.938l-1.25,1.25a.333.333,0,0,1-.243.1.333.333,0,0,1-.243-.1l-3.125-3.125a.333.333,0,0,1-.1-.243.333.333,0,0,1,.1-.243l1.25-1.25a1.275,1.275,0,0,1,.938-.382,1.394,1.394,0,0,1,.972.382Zm-6.285,9.931a.33.33,0,0,1,.139-.278L-2.014-15.9a.348.348,0,0,1,.434-.1.381.381,0,0,1,.26.382v5.486a1.607,1.607,0,0,1-.486,1.181,1.607,1.607,0,0,1-1.181.486H-15.208a1.607,1.607,0,0,1-1.181-.486,1.607,1.607,0,0,1-.486-1.181V-22.361a1.607,1.607,0,0,1,.486-1.181,1.607,1.607,0,0,1,1.181-.486h9.931a.381.381,0,0,1,.382.26.348.348,0,0,1-.1.434L-6.389-21.91a.375.375,0,0,1-.278.1h-7.986v11.111H-3.542Z" transform="translate(16.875 26.25)" fill="#fff"/>
</svg>
