<svg xmlns="http://www.w3.org/2000/svg" width="20" height="18.667" viewBox="0 0 20 18.667">
  <g id="mortarboard" transform="translate(0 -17.068)">
    <g id="Group_26" data-name="Group 26" transform="translate(0 17.068)">
      <g id="Group_25" data-name="Group 25" transform="translate(0 0)">
        <path id="Path_22" data-name="Path 22" d="M342.078,443.736a.332.332,0,0,0-.4.242l-.333,1.333a.333.333,0,0,0,.243.4.323.323,0,0,0,.081.01.333.333,0,0,0,.323-.252l.333-1.333A.334.334,0,0,0,342.078,443.736Z" transform="translate(-327.997 -427.059)" fill="#333"/>
        <path id="Path_23" data-name="Path 23" d="M10,150.066a.33.33,0,0,0,.127-.025l3.667-1.517a.333.333,0,0,0-.255-.616L10,149.372.667,145.51V145.4a.333.333,0,0,0-.667,0v.333a.333.333,0,0,0,.206.308l9.667,4A.33.33,0,0,0,10,150.066Z" transform="translate(0 -140.066)" fill="#333"/>
        <path id="Path_24" data-name="Path 24" d="M95.967,235.482a.333.333,0,0,0-.446-.151,7.769,7.769,0,0,1-3.186.727v-2.99a.333.333,0,0,0-.667,0v2.987c-4.139-.132-5.475-2.639-5.667-3.057v-2.264a.333.333,0,0,0-.667,0v2.333a.337.337,0,0,0,.024.124c.058.144,1.477,3.543,6.643,3.543a8.566,8.566,0,0,0,3.814-.805A.332.332,0,0,0,95.967,235.482Z" transform="translate(-82.002 -222.067)" fill="#333"/>
        <path id="Path_25" data-name="Path 25" d="M375.8,452.266a.333.333,0,0,0-.333.333v1a.333.333,0,1,0,.667,0v-1A.333.333,0,0,0,375.8,452.266Z" transform="translate(-360.8 -435.266)" fill="#333"/>
        <path id="Path_26" data-name="Path 26" d="M19.667,22.067a.333.333,0,0,0-.333.333v.11l-4,1.646v-.6l4.461-1.846a.333.333,0,0,0,0-.616l-9.667-4a.334.334,0,0,0-.255,0l-9.667,4a.333.333,0,0,0,0,.616l9.667,4a.332.332,0,0,0,.255,0l3.5-1.446a.333.333,0,1,0-.255-.616L10,25.04,1.2,21.4,10,17.761,18.795,21.4l-3.827,1.584L11.3,21.616a.8.8,0,0,0,.031-.215c0-.561-.586-1-1.333-1s-1.333.439-1.333,1,.586,1,1.333,1a1.611,1.611,0,0,0,.863-.238l3.8,1.42v1.068h0V31.8a1,1,0,1,0,.667,0V29.9a4.05,4.05,0,0,0,1.315-1.727.337.337,0,0,0,.018-.109V25.734a.333.333,0,0,0-.667,0v2.272a3.41,3.41,0,0,1-.667,1.007V24.878l4.46-1.836A.333.333,0,0,0,20,22.734V22.4A.333.333,0,0,0,19.667,22.067ZM10,21.734c-.407,0-.667-.2-.667-.333s.26-.333.667-.333.667.2.667.333S10.407,21.734,10,21.734Zm5,11.333a.333.333,0,1,1,.333-.333A.334.334,0,0,1,15,33.067Z" transform="translate(0 -17.068)" fill="#333"/>
        <path id="Path_27" data-name="Path 27" d="M401.723,443.981a.333.333,0,0,0-.647.162l.333,1.333a.333.333,0,0,0,.323.252.324.324,0,0,0,.081-.01.333.333,0,0,0,.243-.4Z" transform="translate(-385.399 -427.062)" fill="#333"/>
      </g>
    </g>
  </g>
</svg>
