<svg xmlns="http://www.w3.org/2000/svg" width="20" height="20.303" viewBox="0 0 20 20.303">
  <g id="goal" transform="translate(0.107)">
    <path id="Path_28" data-name="Path 28" d="M61.863,43.062a2,2,0,1,1,2-2A2,2,0,0,1,61.863,43.062Zm0-3.333A1.333,1.333,0,1,0,63.2,41.062,1.333,1.333,0,0,0,61.863,39.729Zm0,0" transform="translate(-57.97 -37.76)" fill="#333"/>
    <path id="Path_29" data-name="Path 29" d="M11.893,177.993v2H8.227v-4.574l-2-.667v-3.426h3a1.669,1.669,0,0,0,1.667-1.667v-.667H1.56a1.668,1.668,0,0,0-1.667,1.667v3.667a1,1,0,0,0,1,1H1.56v6H-.107v2.333H.56v-1.667H5.227v1.667h.667v-3h6v3h.667v-5h6.667v5h.667v-5.667Zm-10.333-7v3.667H.893a.333.333,0,0,1-.333-.333v-3.667a1,1,0,0,1,1-1h8.667a1,1,0,0,1-1,1H5.56v4.574l2,.667v4.093h-1v-3.564l-3.333-1.25v6.148h-1V170.993Zm3.667,9v1.333H3.893V176.14l2,.75v3.1Zm0,0" transform="translate(0 -163.356)" fill="#333"/>
    <path id="Path_30" data-name="Path 30" d="M383.719,13.636h2.667V5.3h1.93L385.052,0l-3.263,5.3h1.93Zm-.737-9,2.07-3.364,2.07,3.364h-1.4v8.333h-1.333V4.636Zm0,0" transform="translate(-369.159)" fill="#333"/>
  </g>
</svg>
