<svg xmlns="http://www.w3.org/2000/svg" xmlns:xlink="http://www.w3.org/1999/xlink" width="30" height="19.091" viewBox="0 0 30 19.091">
  <defs>
    <clipPath id="clip-path">
      <rect id="Rectangle_755" data-name="Rectangle 755" width="30" height="19.091" transform="translate(375.45)" fill="#1ba6df"/>
    </clipPath>
  </defs>
  <g id="Mask_Group_2" data-name="Mask Group 2" transform="translate(-375.45)" clip-path="url(#clip-path)">
    <path id="Path_98" data-name="Path 98" d="M-350.726,19469.484a.9.9,0,0,0-.725-.148.914.914,0,0,0-.593.445l-.6,1.063a.9.9,0,0,0,.246,1.168,6.375,6.375,0,0,1,2.58,5.078,6.364,6.364,0,0,1-1.849,4.527,6.362,6.362,0,0,1-4.515,1.879,6.362,6.362,0,0,1-4.5-1.863,6.361,6.361,0,0,1-1.861-4.5,6.331,6.331,0,0,1,2.575-5.109.91.91,0,0,0,.25-1.176l-.6-1.062a.9.9,0,0,0-.6-.445.912.912,0,0,0-.728.152,9.388,9.388,0,0,0-3.93,7.652,9.412,9.412,0,0,0,9.412,9.383,9.391,9.391,0,0,0,9.375-9.395,9.373,9.373,0,0,0-3.941-7.645Zm-3.939,7.949v-9.09a.908.908,0,0,0-.266-.645.905.905,0,0,0-.644-.266h-1.212a.905.905,0,0,0-.644.266.908.908,0,0,0-.266.645v9.09a.908.908,0,0,0,.266.645.886.886,0,0,0,.644.262h1.213a.884.884,0,0,0,.643-.262A.909.909,0,0,0-354.665,19477.434Z" transform="translate(746.629 -19467.434)" fill="#1ba6df"/>
  </g>
</svg>
