<svg xmlns="http://www.w3.org/2000/svg" width="27.773" height="27.773" viewBox="0 0 27.773 27.773">
  <g id="key" transform="translate(-0.001 0)">
    <g id="Group_1" data-name="Group 1" transform="translate(0.001 0)">
      <path id="Path_1" data-name="Path 1" d="M25.157,2.617A8.946,8.946,0,0,0,10.319,11.7L.239,21.781A.813.813,0,0,0,0,22.356v4.6a.813.813,0,0,0,.814.814h4.6a.813.813,0,0,0,.575-.238l1.151-1.151a.814.814,0,0,0,.233-.669l-.143-1.236,1.713-.161a.812.812,0,0,0,.733-.733l.161-1.713,1.236.144a.8.8,0,0,0,.635-.2.816.816,0,0,0,.273-.608V19.69h1.487a.813.813,0,0,0,.575-.238l2.087-2.059a8.812,8.812,0,0,0,9.022-2.118A8.961,8.961,0,0,0,25.157,2.617Zm-2.3,5.754a2.441,2.441,0,1,1,0-3.452A2.443,2.443,0,0,1,22.855,8.371Z" transform="translate(-0.001 0)" fill="#333"/>
    </g>
  </g>
</svg>
