<?xml version="1.0" encoding="utf-8"?>
<!-- Generator: Adobe Illustrator 17.0.0, SVG Export Plug-In . SVG Version: 6.00 Build 0)  -->
<!DOCTYPE svg PUBLIC "-//W3C//DTD SVG 1.1//EN" "http://www.w3.org/Graphics/SVG/1.1/DTD/svg11.dtd">
<svg version="1.1" id="Capa_1" xmlns="http://www.w3.org/2000/svg" xmlns:xlink="http://www.w3.org/1999/xlink" x="0px" y="0px"
	 width="21px" height="21px" viewBox="489.5 489.5 21 21" enable-background="new 489.5 489.5 21 21" xml:space="preserve">
<g>
	<path d="M505.99,490.848h-4.228l0.634-0.846c0.117-0.155,0.085-0.376-0.07-0.493c-0.155-0.117-0.376-0.085-0.493,0.07l-0.952,1.268
		h-1.72l-0.607-1.215c-0.087-0.174-0.299-0.244-0.473-0.158c-0.174,0.087-0.245,0.299-0.158,0.473l0.45,0.899h-4.363
		c-0.583,0-1.057,0.474-1.057,1.057v17.617c0,0.583,0.474,1.057,1.057,1.057h11.979c0.583,0,1.057-0.474,1.057-1.057v-17.617
		C507.047,491.322,506.573,490.848,505.99,490.848z M494.01,491.552h4.715l0.352,0.705c-0.296,0.259-0.487,0.634-0.487,1.057
		c0,0.777,0.632,1.409,1.409,1.409c0.777,0,1.409-0.632,1.409-1.409s-0.632-1.409-1.409-1.409c-0.101,0-0.199,0.012-0.295,0.032
		l-0.192-0.384h6.477c0.194,0,0.352,0.158,0.352,0.352v11.627h-2.871c-0.107-0.417-0.386-0.773-0.779-0.97l-1.283-0.655v-0.136
		c0.574-0.313,0.977-0.829,1.202-1.538c0.341-0.181,0.56-0.534,0.56-0.929v-0.352c0-0.326-0.152-0.629-0.406-0.828
		c-0.22-1.332-1.149-2.007-2.766-2.007c-0.076,0-0.151,0.003-0.224,0.008c-0.304,0.024-0.75-0.001-1.136-0.261
		c-0.144-0.097-0.253-0.192-0.322-0.279c-0.118-0.152-0.317-0.204-0.494-0.131c-0.177,0.073-0.281,0.249-0.259,0.439
		c0.015,0.132,0.037,0.285,0.07,0.453c0.068,0.344,0.068,0.344-0.027,0.549c-0.036,0.078-0.08,0.173-0.132,0.301
		c-0.117,0.286-0.199,0.599-0.247,0.933c-0.25,0.199-0.4,0.5-0.4,0.823v0.352c0,0.395,0.218,0.748,0.56,0.929
		c0.225,0.709,0.629,1.225,1.202,1.538v0.132l-1.328,0.655c-0.379,0.207-0.644,0.563-0.742,0.974h-2.862v-11.627
		C493.658,491.71,493.816,491.552,494.01,491.552z M499.412,492.927l0.272,0.545c0.062,0.124,0.186,0.195,0.316,0.195
		c0.053,0,0.107-0.012,0.157-0.037c0.174-0.087,0.245-0.299,0.158-0.473l-0.271-0.543c0.368,0.023,0.661,0.327,0.661,0.7
		c0,0.389-0.316,0.705-0.705,0.705c-0.389,0-0.705-0.316-0.705-0.705C499.295,493.171,499.339,493.038,499.412,492.927z
		 M498.947,502.513c0.212-0.104,0.349-0.323,0.349-0.56v-0.635l-0.213-0.092c-0.534-0.23-0.882-0.67-1.062-1.344l-0.05-0.188
		l-0.185-0.058c-0.148-0.046-0.251-0.183-0.251-0.334v-0.352c0-0.128,0.073-0.246,0.191-0.309l0.165-0.088l0.019-0.186
		c0.035-0.331,0.109-0.635,0.219-0.906c0.047-0.115,0.087-0.2,0.119-0.27c0.119-0.257,0.163-0.389,0.133-0.661
		c0.414,0.237,0.912,0.337,1.452,0.296c0.055-0.005,0.111-0.007,0.168-0.007c1.319,0,1.963,0.478,2.089,1.55l0.022,0.184
		l0.164,0.087c0.118,0.063,0.191,0.181,0.191,0.31v0.352c0,0.151-0.103,0.288-0.251,0.334l-0.185,0.058l-0.05,0.188
		c-0.18,0.674-0.528,1.113-1.062,1.344l-0.213,0.092v0.638c0,0.236,0.13,0.448,0.34,0.555l1.33,0.68
		c0.152,0.076,0.272,0.196,0.349,0.341h-5.463c0.07-0.148,0.184-0.271,0.327-0.348L498.947,502.513z M505.99,509.874H494.01
		c-0.194,0-0.352-0.158-0.352-0.352v-5.285h2.819h7.053h2.812v5.285C506.342,509.716,506.184,509.874,505.99,509.874z"/>
	<path d="M503.171,506.703h-6.342c-0.195,0-0.352,0.158-0.352,0.352c0,0.195,0.157,0.352,0.352,0.352h6.342
		c0.195,0,0.352-0.158,0.352-0.352C503.523,506.86,503.366,506.703,503.171,506.703z"/>
	<path d="M498.238,505.998h3.523c0.195,0,0.352-0.158,0.352-0.352c0-0.195-0.158-0.352-0.352-0.352h-3.523
		c-0.195,0-0.352,0.158-0.352,0.352C497.886,505.841,498.043,505.998,498.238,505.998z"/>
	<path d="M497.181,508.112h-0.352c-0.195,0-0.352,0.158-0.352,0.352c0,0.195,0.157,0.352,0.352,0.352h0.352
		c0.195,0,0.352-0.158,0.352-0.352C497.534,508.27,497.376,508.112,497.181,508.112z"/>
	<path d="M499.295,508.112h-0.705c-0.195,0-0.352,0.158-0.352,0.352c0,0.195,0.158,0.352,0.352,0.352h0.705
		c0.195,0,0.352-0.158,0.352-0.352C499.648,508.27,499.49,508.112,499.295,508.112z"/>
	<path d="M501.057,508.112h-0.352c-0.195,0-0.352,0.158-0.352,0.352c0,0.195,0.158,0.352,0.352,0.352h0.352
		c0.195,0,0.352-0.158,0.352-0.352C501.409,508.27,501.252,508.112,501.057,508.112z"/>
	<path d="M503.171,508.112h-0.705c-0.195,0-0.352,0.158-0.352,0.352c0,0.195,0.157,0.352,0.352,0.352h0.705
		c0.195,0,0.352-0.158,0.352-0.352C503.523,508.27,503.366,508.112,503.171,508.112z"/>
</g>
</svg>
