<svg xmlns="http://www.w3.org/2000/svg" width="18.429" height="18.43" viewBox="0 0 18.429 18.43">
  <g id="magnifying-glass" transform="translate(-0.001 0)">
    <path id="Path_1" data-name="Path 1" d="M12.308,2.109a7.212,7.212,0,1,0-.986,11.016,1.518,1.518,0,0,0,.412.764l4.095,4.094a1.523,1.523,0,0,0,2.155-2.155l-4.095-4.1a1.523,1.523,0,0,0-.764-.411A7.219,7.219,0,0,0,12.308,2.109Zm-1.293,8.907a5.384,5.384,0,1,1,0-7.614A5.39,5.39,0,0,1,11.016,11.016Z" transform="translate(0 0)" fill="#333"/>
  </g>
</svg>
