<svg xmlns="http://www.w3.org/2000/svg" width="25" height="28.572" viewBox="0 0 25 28.572">
  <path id="Path_124" data-name="Path 124" d="M12.5,14.572A3.57,3.57,0,0,0,16.07,11H8.93a3.57,3.57,0,0,0,3.57,3.572ZM24.519,6.217c-1.081-1.155-3.1-2.9-3.1-8.609a8.812,8.812,0,0,0-7.139-8.658v-1.162A1.786,1.786,0,0,0,12.5-14a1.786,1.786,0,0,0-1.784,1.786v1.162A8.812,8.812,0,0,0,3.577-2.392c0,5.708-2.014,7.455-3.1,8.609A1.744,1.744,0,0,0,0,7.428,1.787,1.787,0,0,0,1.791,9.214H23.209A1.787,1.787,0,0,0,25,7.428a1.742,1.742,0,0,0-.481-1.211Z" transform="translate(0 14)" fill="#1ba6df"/>
</svg>
