<svg xmlns="http://www.w3.org/2000/svg" width="30" height="30" viewBox="0 0 30 30">
  <path id="Path_56" data-name="Path 56" d="M29.174-3.926a2.808,2.808,0,0,0,0-3.979l-3.522-3.522a2.819,2.819,0,0,0-3.979,0l-2.7,2.7a.7.7,0,0,0,0,1l6.5,6.5a.7.7,0,0,0,1,0ZM16.652-6.4,1.265,8.983.023,16.1a1.408,1.408,0,0,0,1.629,1.629l7.119-1.248L24.159,1.1a.7.7,0,0,0,0-1l-6.5-6.5A.711.711,0,0,0,16.652-6.4ZM7.271,7.664a.817.817,0,0,1,0-1.16L16.295-2.52a.817.817,0,0,1,1.16,0,.817.817,0,0,1,0,1.16L8.431,7.664A.817.817,0,0,1,7.271,7.664ZM5.156,12.592H7.968v2.127l-3.779.662L2.367,13.559,3.029,9.78H5.156Z" transform="translate(-0.001 12.248)" fill="#fff"/>
</svg>
