<svg xmlns="http://www.w3.org/2000/svg" width="16" height="21.33" viewBox="0 0 12 16">
  <path id="Path_103" data-name="Path 103" d="M2.5,113.75V109.5H-3.75a.748.748,0,0,0-.75.75v14.5a.748.748,0,0,0,.75.75H6.75a.748.748,0,0,0,.75-.75V114.5H3.25A.752.752,0,0,1,2.5,113.75Zm2,7.375a.376.376,0,0,1-.375.375h-5.25a.376.376,0,0,1-.375-.375v-.25a.376.376,0,0,1,.375-.375h5.25a.376.376,0,0,1,.375.375Zm0-2a.376.376,0,0,1-.375.375h-5.25a.376.376,0,0,1-.375-.375v-.25a.376.376,0,0,1,.375-.375h5.25a.376.376,0,0,1,.375.375Zm0-2.25v.25a.376.376,0,0,1-.375.375h-5.25a.376.376,0,0,1-.375-.375v-.25a.376.376,0,0,1,.375-.375h5.25A.376.376,0,0,1,4.5,116.875Zm3-3.566a.748.748,0,0,0-.219-.528l-3.059-3.062a.749.749,0,0,0-.531-.219H3.5v4h4Z" transform="translate(4.5 -109.5)" fill="#333"/>
</svg>
