<svg id="placeholder_1_" data-name="placeholder (1)" xmlns="http://www.w3.org/2000/svg" width="20" height="20" viewBox="0 0 20 20">
  <path id="Path_42" data-name="Path 42" d="M25.333,16.667A2.333,2.333,0,1,0,23,14.333,2.336,2.336,0,0,0,25.333,16.667Zm0-4a1.667,1.667,0,1,1-1.667,1.667A1.669,1.669,0,0,1,25.333,12.667Z" transform="translate(-15.333 -8)" fill="#333"/>
  <path id="Path_43" data-name="Path 43" d="M17.038,18.252l5.114-7.386a7.284,7.284,0,0,0-.594-8.994,6.392,6.392,0,0,0-9.04,0,7.281,7.281,0,0,0-.6,8.984ZM12.99,2.344a5.726,5.726,0,0,1,8.1,0,6.581,6.581,0,0,1,.524,8.133l-4.573,6.6-4.58-6.614A6.578,6.578,0,0,1,12.99,2.344Z" transform="translate(-7.097 0)" fill="#333"/>
  <path id="Path_44" data-name="Path 44" d="M14.039,43a.333.333,0,1,0-.078.662c3.505.413,5.372,1.525,5.372,2.169,0,.9-3.551,2.167-9.333,2.167S.667,46.737.667,45.833c0-.644,1.867-1.756,5.372-2.169A.333.333,0,1,0,5.961,43C2.451,43.415,0,44.579,0,45.833c0,1.408,3.435,2.833,10,2.833s10-1.425,10-2.833C20,44.579,17.549,43.415,14.039,43Z" transform="translate(0 -28.666)" fill="#333"/>
</svg>
