<svg xmlns="http://www.w3.org/2000/svg" width="16" height="18.29" viewBox="0 0 12 13.714">
  <path id="Path_107" data-name="Path 107" d="M10.714-3.643H4.071V-6.4a1.946,1.946,0,0,1,1.91-1.953A1.931,1.931,0,0,1,7.929-6.429V-6a.641.641,0,0,0,.643.643h.857A.641.641,0,0,0,10.071-6v-.429A4.076,4.076,0,0,0,5.987-10.5,4.1,4.1,0,0,0,1.929-6.388v2.746H1.286A1.286,1.286,0,0,0,0-2.357V1.929A1.286,1.286,0,0,0,1.286,3.214h9.429A1.286,1.286,0,0,0,12,1.929V-2.357A1.286,1.286,0,0,0,10.714-3.643Z" transform="translate(0 10.5)" fill="#333"/>
</svg>
