<svg xmlns="http://www.w3.org/2000/svg" width="20" height="20" viewBox="0 0 20 20">
  <path id="search" d="M74.645,60.855a9.75,9.75,0,1,0-.292,14.069l2.957,2.957a.4.4,0,0,0,.571-.571l-2.957-2.957a9.75,9.75,0,0,0-.279-13.5ZM58.808,67.75a8.942,8.942,0,1,1,15.325,6.262.4.4,0,0,0-.121.121q-.158.155-.322.3v-.228a2.118,2.118,0,0,0-.053-.487q-.01-.042-.021-.085a2.237,2.237,0,0,0-1.483-1.529l-2.42-.785v-1a3.724,3.724,0,0,0,1.7-2.46l.13-.446a1.265,1.265,0,0,0,.783-1.484,1.027,1.027,0,0,0-.6-.708v-1.57a3.972,3.972,0,1,0-7.944,0v1.569a1.027,1.027,0,0,0-.6.708,1.265,1.265,0,0,0,.783,1.484l.129.445a3.724,3.724,0,0,0,1.7,2.46v1l-2.42.785a2.237,2.237,0,0,0-1.483,1.528q-.012.042-.022.085a2.119,2.119,0,0,0-.053.487v.228q-.2-.174-.383-.36A8.884,8.884,0,0,1,58.808,67.75Zm10.2,3.612a3.064,3.064,0,0,1-2.512,0v-.7a3.72,3.72,0,0,0,2.512,0ZM63.867,66.1a.32.32,0,0,1,.194-.226.838.838,0,0,0,1.156-.737l.044-.97c.2,0,.488-.006.823-.029a8.533,8.533,0,0,0,5.3,1.719h0a.325.325,0,0,1,.247.244.557.557,0,0,1-.443.681.354.354,0,0,0-.286.282l-.18.618a.341.341,0,0,0-.008.033,3.019,3.019,0,0,1-5.933,0q0-.017-.008-.033l-.18-.618a.354.354,0,0,0-.286-.282.555.555,0,0,1-.459-.548.56.56,0,0,1,.016-.133Zm4.163-2.255a4.827,4.827,0,0,0,2.232,1.239,7.71,7.71,0,0,1-3.14-1.06Q67.6,63.952,68.029,63.845Zm2.987.668a4.421,4.421,0,0,1-2.2-.9,5.583,5.583,0,0,0,1.535-.808.354.354,0,0,0-.43-.561c-1.771,1.359-4.952,1.215-4.984,1.214a.354.354,0,0,0-.371.337L64.51,65.1a.128.128,0,0,1-.024.071V63.655a3.265,3.265,0,1,1,6.53,0ZM62.517,75v-.8a1.422,1.422,0,0,1,.034-.326q.007-.029.015-.058a1.533,1.533,0,0,1,1.019-1.043l2.522-.818a3.771,3.771,0,0,0,3.287,0l2.522.818a1.533,1.533,0,0,1,1.02,1.043q.008.029.015.058a1.422,1.422,0,0,1,.034.326V75A8.95,8.95,0,0,1,62.517,75Z" transform="translate(-58 -57.999)" fill="#333"/>
</svg>
