<svg xmlns="http://www.w3.org/2000/svg" width="16" height="21.333" viewBox="0 0 16 21.333">
  <path id="Path_111" data-name="Path 111" d="M7.5.167h-8V2.833h8Zm3.708-6.292L7.129-10.208a1,1,0,0,0-.708-.292H6.167v5.333H11.5v-.254A1,1,0,0,0,11.208-6.125ZM4.833-4.833V-10.5H-3.5a1,1,0,0,0-1,1V9.833a1,1,0,0,0,1,1h14a1,1,0,0,0,1-1V-3.833H5.833A1,1,0,0,1,4.833-4.833ZM-1.833-7.5A.333.333,0,0,1-1.5-7.833H1.833a.333.333,0,0,1,.333.333v.667a.333.333,0,0,1-.333.333H-1.5a.333.333,0,0,1-.333-.333Zm0,2.667A.333.333,0,0,1-1.5-5.167H1.833a.333.333,0,0,1,.333.333v.667a.333.333,0,0,1-.333.333H-1.5a.333.333,0,0,1-.333-.333ZM8.833,7.833a.333.333,0,0,1-.333.333H5.167a.333.333,0,0,1-.333-.333V7.167a.333.333,0,0,1,.333-.333H8.5a.333.333,0,0,1,.333.333Zm0-8.333v4a.666.666,0,0,1-.667.667H-1.167A.666.666,0,0,1-1.833,3.5v-4a.666.666,0,0,1,.667-.667H8.167A.666.666,0,0,1,8.833-.5Z" transform="translate(4.5 10.5)" fill="#333"/>
</svg>
