<svg xmlns="http://www.w3.org/2000/svg" width="16" height="21.333" viewBox="0 0 16 21.333">
  <path id="Path_128" data-name="Path 128" d="M15.708-9.625l-4.079-4.083A1,1,0,0,0,10.921-14h-.254v5.333H16v-.254A1,1,0,0,0,15.708-9.625ZM5.35,0A1.253,1.253,0,0,0,4,1.125,1.254,1.254,0,0,0,5.354,2.25,1.253,1.253,0,0,0,6.7,1.125,1.257,1.257,0,0,0,5.35,0ZM9.333-8.333V-14H6.683v1.333H5.35V-14H1a1,1,0,0,0-1,1V6.333a1,1,0,0,0,1,1H15a1,1,0,0,0,1-1V-7.333H10.333A1,1,0,0,1,9.333-8.333ZM4-12.667H5.329v1.333H4Zm1.346,16A2.185,2.185,0,0,1,3.2.712l.817-4.046V-4.667H5.35V-6H4.017V-7.333H5.35V-8.667H4.017V-10H5.35v-1.333H6.683V-10H5.35v1.333H6.683v1.333H5.35V-6H6.683v1.333H5.35v1.333h.921a.5.5,0,0,1,.492.4L7.483.725A2.185,2.185,0,0,1,5.342,3.333Z" transform="translate(0 14)" fill="#333"/>
</svg>
