<svg xmlns="http://www.w3.org/2000/svg" width="16" height="18.286" viewBox="0 0 16 18.286">
  <path id="Path_96" data-name="Path 96" d="M1.143,2.571A1.715,1.715,0,0,0,2.857,4.286H13.143a1.715,1.715,0,0,0,1.714-1.714v-12H1.143Zm9.714-9.143a.572.572,0,0,1,.571-.571A.572.572,0,0,1,12-6.571v8a.571.571,0,0,1-1.143,0Zm-3.429,0A.572.572,0,0,1,8-7.143a.572.572,0,0,1,.571.571v8a.571.571,0,0,1-1.143,0ZM4-6.571a.572.572,0,0,1,.571-.571.572.572,0,0,1,.571.571v8A.571.571,0,0,1,4,1.429Zm11.429-6.286H11.143l-.336-.668A.938.938,0,0,0,10.04-14H5.954a.926.926,0,0,0-.761.475l-.336.668H.571A.572.572,0,0,0,0-12.286v1.143a.572.572,0,0,0,.571.571H15.429A.572.572,0,0,0,16-11.143v-1.143A.572.572,0,0,0,15.429-12.857Z" transform="translate(0 14)" fill="#333"/>
</svg>
