<svg xmlns="http://www.w3.org/2000/svg" width="18" height="14" viewBox="0 0 13.501 10.499">
  <path id="Path_100" data-name="Path 100" d="M-.179-7.025-4.5-3.466V.375A.375.375,0,0,0-4.125.75L-1.5.743A.376.376,0,0,0-1.125.368h0V-1.875A.375.375,0,0,1-.75-2.25H.75a.375.375,0,0,1,.375.375V.367h0A.375.375,0,0,0,1.5.743h0L4.125.75A.375.375,0,0,0,4.5.375V-3.469L.18-7.025A.332.332,0,0,0,0-7.088.332.332,0,0,0-.179-7.025ZM6.647-4.606,4.688-6.221V-9.468a.281.281,0,0,0-.281-.281H3.094a.281.281,0,0,0-.281.281v1.7L.714-9.492A1.307,1.307,0,0,0,0-9.748a1.307,1.307,0,0,0-.715.256L-6.648-4.606a.319.319,0,0,0-.1.217.327.327,0,0,0,.065.179l.6.727a.319.319,0,0,0,.217.1.327.327,0,0,0,.179-.064L-.179-7.986A.332.332,0,0,1,0-8.049a.332.332,0,0,1,.179.063L5.693-3.445a.327.327,0,0,0,.179.065.319.319,0,0,0,.217-.1l.6-.727a.327.327,0,0,0,.064-.179A.319.319,0,0,0,6.647-4.606Z" transform="translate(6.75 9.749)" fill="#333"/>
</svg>
