<svg xmlns="http://www.w3.org/2000/svg" width="16" height="15.059" viewBox="0 0 16 15.059">
  <path id="Path_129" data-name="Path 129" d="M15.523-5.529H8.544L13.192-.882a.472.472,0,0,0,.653.02A7.044,7.044,0,0,0,16-5,.471.471,0,0,0,15.523-5.529Zm-.466-1.906A7.076,7.076,0,0,0,8.494-14,.473.473,0,0,0,8-13.522v6.581h6.581A.473.473,0,0,0,15.058-7.435ZM6.588-5.529v-6.979a.471.471,0,0,0-.525-.472A7.054,7.054,0,0,0,0-5.754,7.146,7.146,0,0,0,7.148,1.058a7,7,0,0,0,3.978-1.3.467.467,0,0,0,.046-.708Z" transform="translate(0 14)" fill="#333"/>
</svg>
