<svg id="appointment" xmlns="http://www.w3.org/2000/svg" width="20" height="20" viewBox="0 0 20 20">
  <g id="Group_28" data-name="Group 28">
    <g id="Group_27" data-name="Group 27">
      <path id="Path_31" data-name="Path 31" d="M18.047,1.719H16.185V1.172a1.172,1.172,0,0,0-2.344,0v.547H7.279V1.172a1.172,1.172,0,0,0-2.344,0v.561a.39.39,0,0,0-.1-.014H3.274A1.955,1.955,0,0,0,1.321,3.672v6.654a.391.391,0,0,0,.781,0V5.742H16.185a.391.391,0,0,0,0-.781H2.1V3.672A1.173,1.173,0,0,1,3.274,2.5H4.831a.391.391,0,0,0,.1-.014v.5a1.172,1.172,0,0,0,2.344,0V2.5h6.562v.488a1.172,1.172,0,1,0,2.344,0V2.5h1.862a1.173,1.173,0,0,1,1.172,1.172V18.515a.7.7,0,0,1-1.407,0V17.5a.391.391,0,0,0-.391-.391H12.878a.391.391,0,1,0,0,.781h4.153v.62a1.476,1.476,0,0,0,.178.7H1.484a.7.7,0,0,1-.7-.7V17.9H9.524a.391.391,0,0,0,0-.781h-3.9a3.2,3.2,0,1,0-4.174,0H.391A.391.391,0,0,0,0,17.5v1.011A1.486,1.486,0,0,0,1.484,20H18.515A1.486,1.486,0,0,0,20,18.515V3.672A1.955,1.955,0,0,0,18.047,1.719ZM6.5,2.988a.391.391,0,0,1-.781,0V1.172a.391.391,0,0,1,.781,0Zm8.906,0a.391.391,0,1,1-.781,0V1.172a.391.391,0,0,1,.781,0ZM1.112,14.688a2.422,2.422,0,1,1,2.422,2.422A2.425,2.425,0,0,1,1.112,14.688Z" fill="#333"/>
    </g>
  </g>
  <g id="Group_30" data-name="Group 30" transform="translate(17.627 4.961)">
    <g id="Group_29" data-name="Group 29">
      <path id="Path_32" data-name="Path 32" d="M451.907,127.114a.39.39,0,1,0,.115.276A.393.393,0,0,0,451.907,127.114Z" transform="translate(-451.24 -127)" fill="#333"/>
    </g>
  </g>
  <g id="Group_32" data-name="Group 32" transform="translate(10.999 17.114)">
    <g id="Group_31" data-name="Group 31">
      <path id="Path_33" data-name="Path 33" d="M282.247,438.244a.391.391,0,1,0,.114.276A.393.393,0,0,0,282.247,438.244Z" transform="translate(-281.58 -438.13)" fill="#333"/>
    </g>
  </g>
  <g id="Group_34" data-name="Group 34" transform="translate(7.353 11.875)">
    <g id="Group_33" data-name="Group 33">
      <path id="Path_34" data-name="Path 34" d="M189.729,304a1.484,1.484,0,1,0,1.484,1.484A1.486,1.486,0,0,0,189.729,304Zm0,2.188a.7.7,0,1,1,.7-.7A.7.7,0,0,1,189.729,306.188Z" transform="translate(-188.245 -304)" fill="#333"/>
    </g>
  </g>
  <g id="Group_36" data-name="Group 36" transform="translate(10.999 11.875)">
    <g id="Group_35" data-name="Group 35">
      <path id="Path_35" data-name="Path 35" d="M283.062,304a1.484,1.484,0,1,0,1.484,1.484A1.486,1.486,0,0,0,283.062,304Zm0,2.188a.7.7,0,1,1,.7-.7A.7.7,0,0,1,283.062,306.188Z" transform="translate(-281.578 -304)" fill="#333"/>
    </g>
  </g>
  <g id="Group_38" data-name="Group 38" transform="translate(14.645 11.875)">
    <g id="Group_37" data-name="Group 37">
      <path id="Path_36" data-name="Path 36" d="M376.4,304a1.484,1.484,0,1,0,1.484,1.484A1.486,1.486,0,0,0,376.4,304Zm0,2.188a.7.7,0,1,1,.7-.7A.7.7,0,0,1,376.4,306.188Z" transform="translate(-374.912 -304)" fill="#333"/>
    </g>
  </g>
  <g id="Group_40" data-name="Group 40" transform="translate(3.707 7.813)">
    <g id="Group_39" data-name="Group 39">
      <path id="Path_37" data-name="Path 37" d="M96.4,200a1.484,1.484,0,1,0,1.484,1.484A1.486,1.486,0,0,0,96.4,200Zm0,2.188a.7.7,0,1,1,.7-.7A.7.7,0,0,1,96.4,202.188Z" transform="translate(-94.912 -200)" fill="#333"/>
    </g>
  </g>
  <g id="Group_42" data-name="Group 42" transform="translate(10.999 7.813)">
    <g id="Group_41" data-name="Group 41">
      <path id="Path_38" data-name="Path 38" d="M283.062,200a1.484,1.484,0,1,0,1.484,1.484A1.486,1.486,0,0,0,283.062,200Zm0,2.188a.7.7,0,1,1,.7-.7A.7.7,0,0,1,283.062,202.188Z" transform="translate(-281.578 -200)" fill="#333"/>
    </g>
  </g>
  <g id="Group_44" data-name="Group 44" transform="translate(14.645 7.813)">
    <g id="Group_43" data-name="Group 43">
      <path id="Path_39" data-name="Path 39" d="M376.4,200a1.484,1.484,0,1,0,1.484,1.484A1.486,1.486,0,0,0,376.4,200Zm0,2.188a.7.7,0,1,1,.7-.7A.7.7,0,0,1,376.4,202.188Z" transform="translate(-374.912 -200)" fill="#333"/>
    </g>
  </g>
  <g id="Group_46" data-name="Group 46" transform="translate(7.353 7.813)">
    <g id="Group_45" data-name="Group 45">
      <path id="Path_40" data-name="Path 40" d="M189.729,200a1.484,1.484,0,1,0,1.484,1.484A1.486,1.486,0,0,0,189.729,200Zm0,2.188a.7.7,0,1,1,.7-.7A.7.7,0,0,1,189.729,202.188Z" transform="translate(-188.245 -200)" fill="#333"/>
    </g>
  </g>
  <g id="Group_48" data-name="Group 48" transform="translate(2 13.621)">
    <g id="Group_47" data-name="Group 47">
      <path id="Path_41" data-name="Path 41" d="M54.12,348.815a.391.391,0,0,0-.552,0L52.3,350.087l-.435-.435a.391.391,0,0,0-.552.552l.711.711a.391.391,0,0,0,.552,0l1.548-1.548A.391.391,0,0,0,54.12,348.815Z" transform="translate(-51.194 -348.7)" fill="#333"/>
    </g>
  </g>
</svg>
