<svg xmlns="http://www.w3.org/2000/svg" width="20" height="15.22" viewBox="0 0 20 15.22">
  <g id="Group_1" data-name="Group 1" transform="translate(-140 -192)">
    <path id="Path_1" data-name="Path 1" d="M17.558,57.75H2.446A2.448,2.448,0,0,0,0,60.2V70.525A2.448,2.448,0,0,0,2.446,72.97H17.554A2.448,2.448,0,0,0,20,70.525V60.2A2.445,2.445,0,0,0,17.558,57.75Zm1.328,12.775a1.33,1.33,0,0,1-1.328,1.328H2.446a1.33,1.33,0,0,1-1.328-1.328V60.2a1.33,1.33,0,0,1,1.328-1.328H17.554A1.33,1.33,0,0,1,18.883,60.2V70.525Z" transform="translate(140 134.25)" fill="#333"/>
    <path id="Path_2" data-name="Path 2" d="M66.059,114.267l4.891-4.387a.56.56,0,0,0-.749-.832L63.456,115.1l-1.316-1.175s-.008-.008-.008-.012a.828.828,0,0,0-.091-.079l-5.355-4.792a.56.56,0,1,0-.745.836L60.89,114.3l-4.929,4.614a.561.561,0,0,0-.025.79.572.572,0,0,0,.41.178.56.56,0,0,0,.381-.149l5-4.68,1.357,1.212a.557.557,0,0,0,.745,0l1.395-1.25,4.974,4.726a.56.56,0,0,0,.79-.021.561.561,0,0,0-.021-.79Z" transform="translate(86.555 85.214)" fill="#333"/>
  </g>
</svg>
