<svg xmlns="http://www.w3.org/2000/svg" width="16" height="12.8" viewBox="0 0 16 12.8">
  <path id="Path_127" data-name="Path 127" d="M9.6-6H6.4a.8.8,0,0,0-.8.8V-2a.8.8,0,0,0,.8.8H9.6a.8.8,0,0,0,.8-.8V-5.2A.8.8,0,0,0,9.6-6ZM4.8-13.2A.8.8,0,0,0,4-14H.8a.8.8,0,0,0-.8.8V-10a.8.8,0,0,0,.8.8H3.193L5.022-6A1.6,1.6,0,0,1,6.4-6.8h.007L4.8-9.612V-10.8h5.6v-1.6H4.8ZM15.2-14H12a.8.8,0,0,0-.8.8V-10a.8.8,0,0,0,.8.8h3.2A.8.8,0,0,0,16-10v-3.2A.8.8,0,0,0,15.2-14Z" transform="translate(0 14)" fill="#333"/>
</svg>
