<svg xmlns="http://www.w3.org/2000/svg" width="20" height="21.429" viewBox="0 0 20 21.429">
  <g id="text" transform="translate(-0.301 0)">
    <path id="Path_11" data-name="Path 11" d="M7.651,153.4H.658a.357.357,0,0,1-.357-.357v-1.163c0-1,1.1-1.694,2.1-1.694H3.629a.357.357,0,1,1,0,.714H2.4c-.7,0-1.381.486-1.381.98v.806H7.651a.357.357,0,1,1,0,.714Zm0,0" transform="translate(0 -142.33)" fill="#333"/>
    <path id="Path_12" data-name="Path 12" d="M123.227,151.625a.356.356,0,0,1-.3-.171,1.388,1.388,0,0,0-1.119-.553h-1.464a.357.357,0,1,1,0-.714H121.8a2.092,2.092,0,0,1,1.728.894.357.357,0,0,1-.3.544Zm0,0" transform="translate(-113.419 -142.33)" fill="#333"/>
    <path id="Path_13" data-name="Path 13" d="M31.178,5.536h-.03a.358.358,0,0,1-.327-.385L31,2.97A2.2,2.2,0,0,0,28.878.715H27.049A2.21,2.21,0,0,0,24.928,3l.177,2.15a.357.357,0,1,1-.712.059l-.179-2.18A2.93,2.93,0,0,1,27.049,0h1.829a2.924,2.924,0,0,1,2.836,3l-.18,2.209a.357.357,0,0,1-.356.328Zm0,0" transform="translate(-22.663)" fill="#333"/>
    <path id="Path_14" data-name="Path 14" d="M31.177,55.187a3.261,3.261,0,0,1-2.5-1.02,4.579,4.579,0,0,1-1.07-2.745V49.982c0-.607.014-.958.3-1.114.252-.14.49.01.7.142a2.415,2.415,0,0,0,1.39.442,8.258,8.258,0,0,0,1.872-.335c1.046-.266,1.948-.5,2.493-.071a1.116,1.116,0,0,1,.39.935v1.44a4.581,4.581,0,0,1-1.07,2.745,3.262,3.262,0,0,1-2.5,1.02Zm-2.853-5.508c0,.08,0,.179,0,.3v1.439a3.881,3.881,0,0,0,.9,2.286,2.88,2.88,0,0,0,3.909,0,3.884,3.884,0,0,0,.9-2.286V49.982a.462.462,0,0,0-.114-.372c-.269-.21-1.125.008-1.879.2a8.76,8.76,0,0,1-2.048.356,3.065,3.065,0,0,1-1.669-.488Zm0,0" transform="translate(-25.876 -46.257)" fill="#333"/>
    <path id="Path_15" data-name="Path 15" d="M147.488,325.5h-8.456a2.2,2.2,0,0,1-2.2-2.2v-1.8a.357.357,0,1,1,.714,0v1.8a1.488,1.488,0,0,0,1.486,1.487h8.456a1.488,1.488,0,0,0,1.486-1.487v-2.085a.357.357,0,0,1,.714,0V323.3A2.2,2.2,0,0,1,147.488,325.5Zm0,0" transform="translate(-129.388 -304.073)" fill="#333"/>
    <path id="Path_16" data-name="Path 16" d="M147.488,175.269h-8.456a2.2,2.2,0,0,1-2.2-2.2v-7.027a2.2,2.2,0,0,1,2.2-2.2h8.456a2.2,2.2,0,0,1,2.2,2.2v7.027A2.2,2.2,0,0,1,147.488,175.269Zm-8.456-10.714a1.488,1.488,0,0,0-1.486,1.487v7.027a1.488,1.488,0,0,0,1.486,1.486h8.456a1.488,1.488,0,0,0,1.486-1.486v-7.027a1.488,1.488,0,0,0-1.486-1.487Zm0,0" transform="translate(-129.388 -155.268)" fill="#333"/>
    <path id="Path_17" data-name="Path 17" d="M191.445,211.625v2.143h.714V212.7H194.3v5h-.714v.714h2.857V217.7h-.714v-5h2.143v1.071h.714v-2.143Zm0,0" transform="translate(-181.144 -200.553)" fill="#333"/>
  </g>
</svg>
