<svg xmlns="http://www.w3.org/2000/svg" width="16" height="16" viewBox="0 0 16 16">
  <path id="Path_125" data-name="Path 125" d="M16.25-5.75a8,8,0,0,0-8-8,8,8,0,0,0-8,8,8,8,0,0,0,8,8A8,8,0,0,0,16.25-5.75ZM8.465-11.1c1.818,0,3.759,1.419,3.759,3.29,0,2.484-2.683,2.523-2.683,3.441v.043a.387.387,0,0,1-.387.387H7.347a.387.387,0,0,1-.387-.387V-4.46c0-1.324,1-1.854,1.763-2.279.651-.365,1.049-.613,1.049-1.1C9.772-8.474,8.957-8.9,8.3-8.9c-.877,0-1.272.424-1.849,1.155a.387.387,0,0,1-.538.068L4.793-8.524a.388.388,0,0,1-.088-.524A4.178,4.178,0,0,1,8.465-11.1Zm-.215,8A1.486,1.486,0,0,1,9.734-1.621,1.486,1.486,0,0,1,8.25-.137,1.486,1.486,0,0,1,6.766-1.621,1.486,1.486,0,0,1,8.25-3.1Z" transform="translate(-0.25 13.75)" fill="#333"/>
</svg>
