<svg xmlns="http://www.w3.org/2000/svg" width="16" height="21.333" viewBox="0 0 16 21.333">
  <path id="Path_108" data-name="Path 108" d="M4.833,115.167V109.5H-3.5a1,1,0,0,0-1,1v19.333a1,1,0,0,0,1,1h14a1,1,0,0,0,1-1V116.167H5.833A1,1,0,0,1,4.833,115.167Zm3.185,8.807L4,127.961a.71.71,0,0,1-1,0l-4.017-3.987a.666.666,0,0,1,.469-1.14H2.167V119.5a.666.666,0,0,1,.667-.667H4.167a.666.666,0,0,1,.667.667v3.333H7.549A.667.667,0,0,1,8.019,123.973Zm3.19-10.1-4.079-4.083a1,1,0,0,0-.708-.292H6.167v5.333H11.5v-.254A1,1,0,0,0,11.208,113.875Z" transform="translate(4.5 -109.5)" fill="#333"/>
</svg>
