<svg xmlns="http://www.w3.org/2000/svg" width="40" height="40" viewBox="0 0 40 40">
  <g id="Group_275" data-name="Group 275" transform="translate(-311 -15)">
    <g id="Ellipse_10" data-name="Ellipse 10" transform="translate(311 15)" fill="none" stroke="#fff" stroke-width="2">
      <circle cx="20" cy="20" r="20" stroke="none"/>
      <circle cx="20" cy="20" r="19" fill="none"/>
    </g>
    <path id="Path_59" data-name="Path 59" d="M6.227,16.627l1.646,2.76a.425.425,0,0,0,.507.173l2.043-.8a5.861,5.861,0,0,0,1.385.787l.3,2.12a.422.422,0,0,0,.411.333h3.291a.421.421,0,0,0,.411-.347l.3-2.12a6.145,6.145,0,0,0,1.385-.787l2.043.8a.425.425,0,0,0,.507-.173l1.646-2.76a.4.4,0,0,0-.1-.52l-1.742-1.32A4.889,4.889,0,0,0,20.324,14a7.581,7.581,0,0,0-.055-.787l1.742-1.32a.4.4,0,0,0,.1-.52l-1.646-2.76a.425.425,0,0,0-.507-.173l-2.043.8a5.861,5.861,0,0,0-1.385-.787l-.3-2.12A.422.422,0,0,0,15.813,6H12.521a.421.421,0,0,0-.411.347l-.3,2.12a5.816,5.816,0,0,0-1.385.773L8.38,8.44a.425.425,0,0,0-.507.173l-1.646,2.76a.4.4,0,0,0,.1.52l1.742,1.32A5.079,5.079,0,0,0,8,14a7.581,7.581,0,0,0,.055.787l-1.742,1.32a.4.4,0,0,0-.082.52Zm7.94-4.907A2.281,2.281,0,1,1,11.822,14,2.321,2.321,0,0,1,14.167,11.72Z" transform="translate(316.835 21)" fill="#fff"/>
  </g>
</svg>
