<svg xmlns="http://www.w3.org/2000/svg" width="22" height="16.763" viewBox="0 0 22 16.763">
  <path id="Path_132" data-name="Path 132" d="M21.694-1.377A1.011,1.011,0,0,0,22-2.113a1.011,1.011,0,0,0-.305-.742l-7.333-7.333a1.011,1.011,0,0,0-.749-.312,1.011,1.011,0,0,0-.742.305,1.011,1.011,0,0,0-.305.742v4.191H6.634a1.011,1.011,0,0,0-.742.305,1.011,1.011,0,0,0-.305.742V-.023A1.011,1.011,0,0,0,5.892.72a1.011,1.011,0,0,0,.742.305h5.937V5.215a1.011,1.011,0,0,0,.305.742,1.053,1.053,0,0,0,1.484,0ZM8.387,5.738a.521.521,0,0,1-.524.524H4.191A4.041,4.041,0,0,1,1.222,5.037,4.041,4.041,0,0,1,0,2.071V-6.316A4.041,4.041,0,0,1,1.222-9.277,4.041,4.041,0,0,1,4.191-10.5H7.857a.5.5,0,0,1,.371.153.5.5,0,0,1,.153.371V-8.23a.5.5,0,0,1-.153.371.5.5,0,0,1-.371.153H4.191a1.342,1.342,0,0,0-.982.412,1.342,1.342,0,0,0-.412.982V2.075a1.342,1.342,0,0,0,.412.982,1.342,1.342,0,0,0,.982.412H7.857a.533.533,0,0,1,.531.522Z" transform="translate(0 10.5)" fill="#333"/>
</svg>
