<svg xmlns="http://www.w3.org/2000/svg" width="22" height="29.333" viewBox="0 0 22 29.333">
  <path id="Path_106" data-name="Path 106" d="M17.5,236.487a1.578,1.578,0,0,0-.4-.972l-5.61-5.612a1.375,1.375,0,0,0-.972-.4h-.348v7.333H17.5Zm-9.167.8V229.5H-3.125A1.375,1.375,0,0,0-4.5,230.875v26.583a1.375,1.375,0,0,0,1.375,1.375h19.25a1.375,1.375,0,0,0,1.375-1.375V238.667H9.708A1.379,1.379,0,0,1,8.333,237.292Zm5.5,8.25v6.417a1.375,1.375,0,0,1-2.347.972l-3.153-3.151v2.18a1.375,1.375,0,0,1-1.375,1.375H.542a1.375,1.375,0,0,1-1.375-1.375v-6.417a1.375,1.375,0,0,1,1.375-1.375H6.958a1.375,1.375,0,0,1,1.375,1.375v2.18l3.153-3.151a1.377,1.377,0,0,1,2.347.972Z" transform="translate(4.5 -229.5)" fill="#1ba6df"/>
</svg>
