<svg xmlns="http://www.w3.org/2000/svg" width="16" height="12.19" viewBox="0 0 12 12.194">
  <path id="Path_98" data-name="Path 98" d="M3.671,310.809a.58.58,0,0,0-.842.189l-.382.68a.577.577,0,0,0,.157.748,4.066,4.066,0,0,1,1.648,3.242,4.064,4.064,0,0,1-4.065,4.091,4.061,4.061,0,0,1-4.065-4.067,4.045,4.045,0,0,1,1.645-3.264.58.58,0,0,0,.16-.75l-.382-.68a.582.582,0,0,0-.847-.186A6,6,0,0,0-5.812,315.7,6.013,6.013,0,0,0,.2,321.694a6,6,0,0,0,5.988-6A5.988,5.988,0,0,0,3.671,310.809Zm-2.516,5.078v-5.806a.579.579,0,0,0-.581-.581H-.2a.579.579,0,0,0-.581.581v5.806a.579.579,0,0,0,.581.581H.575A.579.579,0,0,0,1.155,315.887Z" transform="translate(5.813 -309.5)" fill="#333"/>
</svg>
