<svg xmlns="http://www.w3.org/2000/svg" width="20" height="22.857" viewBox="0 0 20 22.857">
  <path id="trash-restore" d="M2.375,20.848a2.143,2.143,0,0,0,2.138,2.009H15.487a2.143,2.143,0,0,0,2.138-2.009l.946-15.134H1.429ZM5.5,13,9.5,8.792a.688.688,0,0,1,1.01,0L14.5,13a.759.759,0,0,1-.505,1.286H11.429v5a.714.714,0,0,1-.714.714H9.286a.714.714,0,0,1-.714-.714v-5H6.01A.759.759,0,0,1,5.5,13ZM19.286,1.428H13.929l-.42-.835A1.071,1.071,0,0,0,12.549,0h-5.1a1.059,1.059,0,0,0-.955.594l-.42.835H.714A.714.714,0,0,0,0,2.143V3.571a.714.714,0,0,0,.714.714H19.286A.714.714,0,0,0,20,3.571V2.143A.714.714,0,0,0,19.286,1.428Z" transform="translate(0 0)" fill="#fff"/>
</svg>
