<svg xmlns="http://www.w3.org/2000/svg" width="16" height="21.33" viewBox="0 0 12 16">
  <path id="Path_106" data-name="Path 106" d="M7.5,233.311a.861.861,0,0,0-.22-.53L4.22,229.72a.75.75,0,0,0-.53-.22H3.5v4h4Zm-5,.439V229.5H-3.75a.75.75,0,0,0-.75.75v14.5a.75.75,0,0,0,.75.75H6.75a.75.75,0,0,0,.75-.75V234.5H3.25A.752.752,0,0,1,2.5,233.75Zm3,4.5v3.5a.75.75,0,0,1-1.28.53L2.5,240.561v1.189a.75.75,0,0,1-.75.75h-3.5a.75.75,0,0,1-.75-.75v-3.5a.75.75,0,0,1,.75-.75h3.5a.75.75,0,0,1,.75.75v1.189l1.72-1.719A.751.751,0,0,1,5.5,238.25Z" transform="translate(4.5 -229.5)" fill="#333"/>
</svg>
