<svg xmlns="http://www.w3.org/2000/svg" width="30" height="30" viewBox="0 0 30 30">
  <path id="Path_118" data-name="Path 118" d="M27.857,2.036H18.214V-7.607A2.143,2.143,0,0,0,16.071-9.75H13.929a2.143,2.143,0,0,0-2.143,2.143V2.036H2.143A2.143,2.143,0,0,0,0,4.179V6.321A2.143,2.143,0,0,0,2.143,8.464h9.643v9.643a2.143,2.143,0,0,0,2.143,2.143h2.143a2.143,2.143,0,0,0,2.143-2.143V8.464h9.643A2.143,2.143,0,0,0,30,6.321V4.179A2.143,2.143,0,0,0,27.857,2.036Z" transform="translate(0 9.75)" fill="#fff"/>
</svg>
