<svg xmlns="http://www.w3.org/2000/svg" width="16" height="14.222" viewBox="0 0 16 14.222">
  <path id="Path_109" data-name="Path 109" d="M8.583,71.278H5.694V70.167a.665.665,0,0,0-.667-.667H-2.528a.665.665,0,0,0-.667.667v1.111H-6.083a.665.665,0,0,0-.667.667V73.5a3.625,3.625,0,0,0,1.719,2.8,6.508,6.508,0,0,0,3.056,1.158A6.144,6.144,0,0,0-.083,79.5v2H-1.417a1.6,1.6,0,0,0-1.778,1.556v.333a.334.334,0,0,0,.333.333H5.361a.334.334,0,0,0,.333-.333v-.333A1.6,1.6,0,0,0,3.917,81.5H2.583v-2a6.144,6.144,0,0,0,1.892-2.044A6.485,6.485,0,0,0,7.531,76.3,3.632,3.632,0,0,0,9.25,73.5V71.944A.665.665,0,0,0,8.583,71.278ZM-3.992,74.856A2.043,2.043,0,0,1-4.972,73.5v-.444h1.783a9.977,9.977,0,0,0,.356,2.394A4.477,4.477,0,0,1-3.992,74.856ZM7.472,73.5a2.134,2.134,0,0,1-.981,1.356,4.494,4.494,0,0,1-1.161.594,9.977,9.977,0,0,0,.356-2.394H7.472Z" transform="translate(6.75 -69.5)" fill="#333"/>
</svg>
