<svg xmlns="http://www.w3.org/2000/svg" width="16" height="18.286" viewBox="0 0 16 18.286">
  <path id="Path_124" data-name="Path 124" d="M8,4.286A2.285,2.285,0,0,0,10.285,2H5.715A2.285,2.285,0,0,0,8,4.286Zm7.692-5.347C15-1.8,13.711-2.918,13.711-6.571a5.64,5.64,0,0,0-4.569-5.541v-.744A1.143,1.143,0,0,0,8-14a1.143,1.143,0,0,0-1.142,1.143v.744A5.64,5.64,0,0,0,2.289-6.571C2.289-2.918,1-1.8.308-1.061A1.116,1.116,0,0,0,0-.286,1.144,1.144,0,0,0,1.146.857H14.854A1.144,1.144,0,0,0,16-.286,1.115,1.115,0,0,0,15.692-1.061Z" transform="translate(0 14)" fill="#333"/>
</svg>
