<svg xmlns="http://www.w3.org/2000/svg" width="20" height="26.667" viewBox="0 0 20 26.667">
  <path id="Path_103" data-name="Path 103" d="M7.167,116.583V109.5H-3.25a1.247,1.247,0,0,0-1.25,1.25v24.167a1.247,1.247,0,0,0,1.25,1.25h17.5a1.247,1.247,0,0,0,1.25-1.25V117.833H8.417A1.254,1.254,0,0,1,7.167,116.583ZM10.5,128.875a.627.627,0,0,1-.625.625H1.125a.627.627,0,0,1-.625-.625v-.417a.627.627,0,0,1,.625-.625h8.75a.627.627,0,0,1,.625.625Zm0-3.333a.627.627,0,0,1-.625.625H1.125a.627.627,0,0,1-.625-.625v-.417a.627.627,0,0,1,.625-.625h8.75a.627.627,0,0,1,.625.625Zm0-3.75v.417a.627.627,0,0,1-.625.625H1.125a.627.627,0,0,1-.625-.625v-.417a.627.627,0,0,1,.625-.625h8.75A.627.627,0,0,1,10.5,121.792Zm5-5.943a1.246,1.246,0,0,0-.365-.88l-5.1-5.1a1.249,1.249,0,0,0-.885-.365H8.833v6.667H15.5Z" transform="translate(4.5 -109.5)" fill="#1ba6df"/>
</svg>
