<svg id="factory" xmlns="http://www.w3.org/2000/svg" width="20" height="20" viewBox="0 0 20 20">
  <g id="Group_2" data-name="Group 2" transform="translate(0 5.323)">
    <g id="Group_1" data-name="Group 1">
      <path id="Path_1" data-name="Path 1" d="M19.707,150.366h-.96v-4.027a.919.919,0,0,0-.606-1.609H16.225l-.3-4.735a.293.293,0,0,0-.292-.275H14.384a.293.293,0,0,0-.292.275l-.3,4.735h-.7l-.3-4.735a.293.293,0,0,0-.292-.275H11.253a.293.293,0,0,0-.292.275l-.3,4.735h-.7l-.3-4.735a.293.293,0,0,0-.292-.275H8.121a.293.293,0,0,0-.292.275l-.3,4.735H6.717l-.181-8.168a.293.293,0,0,0-.293-.286H4.364a.293.293,0,0,0-.293.286l-.209,9.421H1.545a.919.919,0,0,0-.606,1.609v2.774H.293a.293.293,0,0,0,0,.586H19.707a.293.293,0,0,0,0-.586ZM3.834,147.235H2.8a.293.293,0,1,0,0,.586H3.821l-.057,2.545H1.525V147.82h.02a.293.293,0,1,0,0-.586.333.333,0,0,1,0-.667h2.3Zm10.825-6.929h.7l.277,4.424H14.383Zm-3.131,0h.7l.277,4.424H11.251Zm-3.131,0h.7l.276,4.424H8.12ZM5.01,150.366H4.35l.3-13.5H5.956l.175,7.869H5.616a.919.919,0,0,0-.606,1.609Zm13.131-4.384h-.626a.293.293,0,1,0,0,.586h.646v3.8H5.6v-3.8H16.263a.293.293,0,0,0,0-.586H5.616a.333.333,0,1,1,0-.667H18.141a.333.333,0,1,1,0,.667Z" transform="translate(0 -136.275)" fill="#333"/>
    </g>
  </g>
  <g id="Group_4" data-name="Group 4" transform="translate(4.697)">
    <g id="Group_3" data-name="Group 3">
      <path id="Path_2" data-name="Path 2" d="M131.807,0a3.714,3.714,0,0,0-2.4.872,2.788,2.788,0,0,0-3.634.245,2.167,2.167,0,0,0-2.847,1.124,1.331,1.331,0,0,0-.36-.05,1.388,1.388,0,0,0-1.312.945.885.885,0,0,0-.1-.005.92.92,0,0,0-.919.919.293.293,0,1,0,.586,0,.334.334,0,0,1,.333-.333.327.327,0,0,1,.169.049.293.293,0,0,0,.443-.234.8.8,0,0,1,.8-.755.79.79,0,0,1,.391.107.293.293,0,0,0,.427-.18,1.582,1.582,0,0,1,2.31-.974.293.293,0,0,0,.366-.063,2.2,2.2,0,0,1,3.159-.192.293.293,0,0,0,.4-.006,3.149,3.149,0,1,1-.583,3.775.293.293,0,0,0-.38-.126,2.2,2.2,0,0,1-2.6-.564.293.293,0,0,0-.366-.063,1.58,1.58,0,0,1-2.036-.416.293.293,0,0,0-.231-.114h0a.293.293,0,0,0-.231.112.8.8,0,0,1-.629.311.293.293,0,0,0,0,.586,1.369,1.369,0,0,0,.846-.292,2.165,2.165,0,0,0,2.36.427,2.794,2.794,0,0,0,1.96.8,2.761,2.761,0,0,0,.922-.158A3.737,3.737,0,1,0,131.807,0Z" transform="translate(-120.241)" fill="#333"/>
    </g>
  </g>
  <g id="Group_6" data-name="Group 6" transform="translate(7.202 16.283)">
    <g id="Group_5" data-name="Group 5">
      <path id="Path_3" data-name="Path 3" d="M184.664,416.839a.293.293,0,0,0-.293.293v.626a.293.293,0,0,0,.586,0v-.626A.293.293,0,0,0,184.664,416.839Z" transform="translate(-184.371 -416.839)" fill="#333"/>
    </g>
  </g>
  <g id="Group_8" data-name="Group 8" transform="translate(8.455 16.283)">
    <g id="Group_7" data-name="Group 7">
      <path id="Path_4" data-name="Path 4" d="M216.729,416.839a.293.293,0,0,0-.293.293v.626a.293.293,0,0,0,.586,0v-.626A.293.293,0,0,0,216.729,416.839Z" transform="translate(-216.436 -416.839)" fill="#333"/>
    </g>
  </g>
  <g id="Group_10" data-name="Group 10" transform="translate(9.707 16.283)">
    <g id="Group_9" data-name="Group 9">
      <path id="Path_5" data-name="Path 5" d="M248.793,416.839a.293.293,0,0,0-.293.293v.626a.293.293,0,0,0,.586,0v-.626A.293.293,0,0,0,248.793,416.839Z" transform="translate(-248.5 -416.839)" fill="#333"/>
    </g>
  </g>
  <g id="Group_12" data-name="Group 12" transform="translate(10.96 16.283)">
    <g id="Group_11" data-name="Group 11">
      <path id="Path_6" data-name="Path 6" d="M280.857,416.839a.293.293,0,0,0-.293.293v.626a.293.293,0,0,0,.586,0v-.626A.293.293,0,0,0,280.857,416.839Z" transform="translate(-280.564 -416.839)" fill="#333"/>
    </g>
  </g>
  <g id="Group_14" data-name="Group 14" transform="translate(12.212 16.283)">
    <g id="Group_13" data-name="Group 13">
      <path id="Path_7" data-name="Path 7" d="M312.922,416.839a.293.293,0,0,0-.293.293v.626a.293.293,0,0,0,.586,0v-.626A.293.293,0,0,0,312.922,416.839Z" transform="translate(-312.629 -416.839)" fill="#333"/>
    </g>
  </g>
  <g id="Group_16" data-name="Group 16" transform="translate(13.465 16.283)">
    <g id="Group_15" data-name="Group 15">
      <path id="Path_8" data-name="Path 8" d="M344.986,416.839a.293.293,0,0,0-.293.293v.626a.293.293,0,0,0,.586,0v-.626A.293.293,0,0,0,344.986,416.839Z" transform="translate(-344.693 -416.839)" fill="#333"/>
    </g>
  </g>
  <g id="Group_18" data-name="Group 18" transform="translate(14.717 16.283)">
    <g id="Group_17" data-name="Group 17">
      <path id="Path_9" data-name="Path 9" d="M377.051,416.839a.293.293,0,0,0-.293.293v.626a.293.293,0,0,0,.586,0v-.626A.293.293,0,0,0,377.051,416.839Z" transform="translate(-376.758 -416.839)" fill="#333"/>
    </g>
  </g>
  <g id="Group_20" data-name="Group 20" transform="translate(15.97 16.283)">
    <g id="Group_19" data-name="Group 19">
      <path id="Path_10" data-name="Path 10" d="M409.116,416.839a.293.293,0,0,0-.293.293v.626a.293.293,0,0,0,.586,0v-.626A.293.293,0,0,0,409.116,416.839Z" transform="translate(-408.823 -416.839)" fill="#333"/>
    </g>
  </g>
</svg>
