<svg xmlns="http://www.w3.org/2000/svg" width="16" height="18.286" viewBox="0 0 16 18.286">
  <path id="Path_126" data-name="Path 126" d="M4-9.428a2.849,2.849,0,0,1,1.429-2.461v7.032H7.143v-7.429H8.857v7.429h1.714v-7.032A2.849,2.849,0,0,1,12-9.428v4.572h1.714V-9.428A4.571,4.571,0,0,0,9.143-14H6.857A4.571,4.571,0,0,0,2.286-9.428v4.572H4ZM15.94-1.789l-.382-1.143a1.144,1.144,0,0,0-1.086-.782H1.525a1.144,1.144,0,0,0-1.086.782L.057-1.789a1.146,1.146,0,0,0,1.086,1.5v4a.573.573,0,0,0,.571.571H2.857a.573.573,0,0,0,.571-.571v-4h9.143v4a.573.573,0,0,0,.571.571h1.143a.573.573,0,0,0,.571-.571v-4A1.142,1.142,0,0,0,15.94-1.789Z" transform="translate(0.001 14)" fill="#333"/>
</svg>
