<svg id="online-payment" xmlns="http://www.w3.org/2000/svg" width="20" height="18.75" viewBox="0 0 20 18.75">
  <path id="Path_45" data-name="Path 45" d="M186.391,320a.391.391,0,1,0,.391.391A.391.391,0,0,0,186.391,320Zm0,0" transform="translate(-178.734 -307.5)" fill="#333"/>
  <path id="Path_46" data-name="Path 46" d="M18.828,0H1.172A1.173,1.173,0,0,0,0,1.172v12.5a1.173,1.173,0,0,0,1.172,1.172H7.656v.391a1.173,1.173,0,0,1-1.172,1.172,1.953,1.953,0,0,0-1.953,1.953.391.391,0,0,0,.391.391H15.078a.391.391,0,0,0,.391-.391,1.955,1.955,0,0,0-1.953-1.953,1.173,1.173,0,0,1-1.172-1.172v-.391h6.484A1.173,1.173,0,0,0,20,13.672V1.172A1.173,1.173,0,0,0,18.828,0ZM1.172.781H18.828a.391.391,0,0,1,.391.391v9.766H.781V1.172A.391.391,0,0,1,1.172.781ZM14.621,17.969H5.379a1.173,1.173,0,0,1,1.105-.781h7.031a1.174,1.174,0,0,1,1.1.781Zm-2.666-1.562H8.046a1.943,1.943,0,0,0,.392-1.172v-.391h3.125v.391a1.943,1.943,0,0,0,.392,1.172Zm6.874-2.344H1.172a.391.391,0,0,1-.391-.391V11.719H19.219v1.953A.391.391,0,0,1,18.828,14.063Zm0,0" fill="#333"/>
  <path id="Path_47" data-name="Path 47" d="M106.391,86.25h10.938a.391.391,0,0,0,0-.781h-1.334a4.3,4.3,0,1,0-8.27,0h-1.334a.391.391,0,0,0,0,.781Zm1.953-1.953a3.516,3.516,0,1,1,6.831,1.172h-2.211a1.172,1.172,0,0,0-1.1-1.562.391.391,0,0,1,0-.781.628.628,0,0,1,.423.2.391.391,0,1,0,.543-.561,1.507,1.507,0,0,0-.575-.36v-.455a.391.391,0,0,0-.781,0v.458a1.172,1.172,0,0,0,.391,2.277.391.391,0,0,1,0,.781.707.707,0,0,1-.507-.3.391.391,0,0,0-.687.3h-2.121a3.5,3.5,0,0,1-.2-1.172Zm0,0" transform="translate(-101.859 -76.875)" fill="#333"/>
  <path id="Path_48" data-name="Path 48" d="M228.734,320h-2.344a.391.391,0,0,0,0,.781h2.344a.391.391,0,0,0,0-.781Zm0,0" transform="translate(-217.172 -307.5)" fill="#333"/>
</svg>
