<svg xmlns="http://www.w3.org/2000/svg" xmlns:xlink="http://www.w3.org/1999/xlink" width="24" height="24" viewBox="0 0 24 24">
  <defs>
    <linearGradient id="linear-gradient" x1="0.375" y1="0.636" x2="1" gradientUnits="objectBoundingBox">
      <stop offset="0" stop-color="#1ba7e0"/>
      <stop offset="1" stop-color="#26e0f8"/>
    </linearGradient>
  </defs>
  <path id="Path_59" data-name="Path 59" d="M6.258,21.94l2.468,4.14a.638.638,0,0,0,.761.26l3.065-1.2a8.791,8.791,0,0,0,2.078,1.18l.453,3.18a.634.634,0,0,0,.617.5h4.937a.632.632,0,0,0,.617-.52l.453-3.18a9.218,9.218,0,0,0,2.078-1.18l3.065,1.2a.638.638,0,0,0,.761-.26l2.468-4.14a.6.6,0,0,0-.144-.78l-2.612-1.98A7.334,7.334,0,0,0,27.4,18a11.372,11.372,0,0,0-.082-1.18l2.612-1.98a.6.6,0,0,0,.144-.78L27.61,9.92a.638.638,0,0,0-.761-.26l-3.065,1.2a8.791,8.791,0,0,0-2.078-1.18L21.254,6.5a.634.634,0,0,0-.617-.5H15.7a.632.632,0,0,0-.617.52L14.63,9.7a8.725,8.725,0,0,0-2.078,1.16L9.487,9.66a.638.638,0,0,0-.761.26L6.258,14.06a.6.6,0,0,0,.144.78l2.612,1.98a7.618,7.618,0,0,0-.1,1.18,11.372,11.372,0,0,0,.082,1.18L6.381,21.16a.6.6,0,0,0-.123.78Zm11.91-7.36A3.421,3.421,0,1,1,14.65,18,3.481,3.481,0,0,1,18.168,14.58Z" transform="translate(-6.165 -6)" fill="url(#linear-gradient)"/>
</svg>
